<svg width="220" height="42" fill="none" xmlns="http://www.w3.org/2000/svg"><path fill="#EE3643" d="M0 0h220v42H0z"/><path fill-rule="evenodd" clip-rule="evenodd" d="M159.85 14.66v14.79h-2.12v-14.8h-3.75v-1.63h9.62v1.64h-3.75zm-8.14 8.7c-.37.46-.83.79-1.38.98-.56.2-1.22.3-1.99.3a12 12 0 01-2.34-.24v5.05h-2.12v-16.2c.6-.17 1.2-.3 1.8-.36.6-.07 1.25-.11 1.96-.11.94 0 1.74.1 2.4.3.65.19 1.18.51 1.59.97.4.45.7 1.05.9 1.8.18.76.27 1.69.27 2.8 0 1.14-.09 2.1-.27 2.86a4.62 4.62 0 01-.82 1.85zm-1.2-6.82a3.3 3.3 0 00-.55-1.34 2 2 0 00-.95-.7 4.2 4.2 0 00-1.37-.2H146V23h1.64c.53 0 .99-.07 1.37-.2a2 2 0 00.95-.7c.25-.33.44-.77.55-1.34.12-.56.18-1.26.18-2.11 0-.85-.06-1.55-.18-2.11zm-11.91 8.68h-4.7l-1.05 4.23h-2.12l4-16.43h3.05l3.99 16.43h-2.11l-1.06-4.23zm-2.3-9.86h-.1l-1.94 8.22h3.99l-1.95-8.22zm-10.14 1.88h-.12l-3.4 10.1h-2.12l-3.4-10.1H117l-.7 12.21h-2.12l.94-16.43h2.58l3.83 11.26h.1l3.82-11.26h2.58l.94 16.43h-2.1l-.71-12.2zm-15.78 10.68c-.44.65-.97 1.1-1.59 1.37-.61.26-1.32.4-2.12.4s-1.5-.14-2.13-.4a3.69 3.69 0 01-1.58-1.37 7.2 7.2 0 01-1-2.6 20.54 20.54 0 01-.34-4.09c0-1.64.11-3 .34-4.1a7.2 7.2 0 011-2.59c.44-.64.97-1.1 1.58-1.36.62-.27 1.33-.4 2.13-.4.8 0 1.5.13 2.12.4.62.27 1.15.72 1.59 1.36.44.64.77 1.5 1 2.6.22 1.08.34 2.45.34 4.1 0 1.64-.12 3-.34 4.09a7.22 7.22 0 01-1 2.6zm-1.02-10.16a8.2 8.2 0 00-.65-2.16c-.26-.53-.58-.9-.94-1.1-.36-.2-.72-.31-1.1-.31-.38 0-.74.1-1.1.3-.36.2-.68.58-.94 1.1a8.19 8.19 0 00-.65 2.17c-.16.9-.25 2.06-.25 3.47 0 1.41.09 2.57.25 3.48.16.9.38 1.63.65 2.16.26.53.58.9.94 1.1.36.2.72.3 1.1.3.38 0 .74-.1 1.1-.3.36-.2.68-.57.94-1.1a8.2 8.2 0 00.65-2.16c.16-.91.24-2.07.24-3.48 0-1.4-.08-2.56-.24-3.47zm-12.67 4.18h-4.93v7.51h-2.11V13.02h2.11v7.27h4.93v-7.27h2.11v16.43h-2.1v-7.51zm-11.15 7.51l-2.94-7.04-2.93 7.04h-2.11L81.08 21l-3.17-7.98h2.11l2.58 6.57 2.59-6.57h2.11L84.13 21l3.52 8.45h-2.11zM68.28 13.02h7.99v1.64H70.4v5.4h5.16v1.64H70.4v6.1h5.87v1.65h-7.99V13.02zm-5.63 16.43h-2.11v-14.8h-3.76v-1.63h9.62v1.64h-3.75v14.79z" fill="#fff"/></svg>